<?xml version="1.0" encoding="UTF-8"?>
<svg xmlns="http://www.w3.org/2000/svg" xmlns:xlink="http://www.w3.org/1999/xlink" width="24px" height="24px" viewBox="0 0 24 24" version="1.1">
<g id="surface1">
<path style=" stroke:none;fill-rule:nonzero;fill:rgb(0%,0%,0%);fill-opacity:1;" d="M 12 0 C 5.371094 0 0 5.371094 0 12 C 0 18.628906 5.371094 24 12 24 C 18.628906 24 24 18.628906 24 12 C 24 5.371094 18.628906 0 12 0 Z M 12 6 C 12.828125 6 13.5 6.671875 13.5 7.5 C 13.5 8.328125 12.828125 9 12 9 C 11.171875 9 10.5 8.328125 10.5 7.5 C 10.5 6.671875 11.171875 6 12 6 Z M 13.875 18 L 10.125 18 C 9.507812 18 9 17.5 9 16.875 C 9 16.25 9.503906 15.75 10.125 15.75 L 10.875 15.75 L 10.875 12.75 L 10.5 12.75 C 9.878906 12.75 9.375 12.246094 9.375 11.625 C 9.375 11.003906 9.882812 10.5 10.5 10.5 L 12 10.5 C 12.621094 10.5 13.125 11.003906 13.125 11.625 L 13.125 15.75 L 13.875 15.75 C 14.496094 15.75 15 16.253906 15 16.875 C 15 17.496094 14.5 18 13.875 18 Z M 13.875 18 "/>
</g>
</svg>
